<?xml version="1.0" standalone="no"?>
<!DOCTYPE svg PUBLIC "-//W3C//DTD SVG 20010904//EN"
 "http://www.w3.org/TR/2001/REC-SVG-20010904/DTD/svg10.dtd">
<svg version="1.0" xmlns="http://www.w3.org/2000/svg"
 width="177.000000pt" height="177.000000pt" viewBox="0 0 177.000000 177.000000"
 preserveAspectRatio="xMidYMid meet">
<metadata>
Created by potrace 1.14, written by Peter Selinger 2001-2017
</metadata>
<g transform="translate(0.000000,177.000000) scale(0.100000,-0.100000)"
fill="#000000" stroke="none">
<path d="M1620 1273 c0 -8 5 -11 10 -8 6 4 10 -10 10 -34 0 -22 5 -43 10 -46
6 -4 10 12 10 40 0 32 4 44 11 39 7 -4 10 -1 7 7 -6 18 -58 20 -58 2z"/>
<path d="M1690 1236 c0 -33 4 -55 9 -51 6 3 8 14 6 25 -5 27 4 25 14 -2 l9
-23 10 25 c9 22 11 23 13 5 1 -11 1 -23 0 -27 0 -5 4 -8 9 -8 13 0 13 97 0
105 -5 3 -12 -6 -16 -20 -7 -26 -24 -35 -24 -11 0 7 -7 19 -15 26 -13 11 -15
5 -15 -44z"/>
<path d="M27 1152 l-27 -3 2 -327 3 -327 62 0 c48 -1 62 2 65 14 2 9 3 82 3
164 -1 81 2 147 5 147 4 0 24 -58 46 -130 l39 -130 51 0 51 0 36 113 c20 61
39 126 44 142 5 20 10 -29 13 -145 l5 -175 55 -1 c30 0 60 1 65 3 12 4 14 637
3 649 -7 6 -31 7 -127 5 -29 -1 -30 -4 -81 -158 -29 -87 -56 -161 -59 -165 -4
-5 -31 66 -61 157 -30 91 -59 165 -65 166 -46 3 -105 3 -128 1z"/>
<path d="M598 1149 c-10 -6 140 -601 161 -639 12 -22 159 -22 165 0 3 8 19 67
35 130 17 63 47 174 67 245 19 72 37 137 39 146 2 9 8 34 14 55 19 69 19 69
-64 69 l-74 0 -20 -85 c-10 -47 -31 -142 -47 -212 -15 -70 -29 -126 -30 -125
-3 2 -53 224 -69 302 -3 17 -7 35 -9 40 -1 6 -6 25 -10 43 -4 17 -13 32 -19
33 -46 4 -131 3 -139 -2z"/>
<path d="M1128 1152 l-27 -3 43 -92 c24 -51 58 -123 76 -161 l33 -69 -80 -161
c-45 -89 -77 -163 -72 -166 5 -3 43 -6 86 -5 l77 0 18 35 c9 19 43 97 74 173
l57 137 -67 158 -68 157 -61 0 c-34 0 -74 -1 -89 -3z"/>
<path d="M1394 1109 l-23 -46 36 -102 c20 -55 39 -101 42 -101 8 0 142 282
137 287 -2 3 -41 5 -86 6 l-82 2 -24 -46z"/>
<path d="M1407 716 l-38 -103 28 -59 28 -59 88 -1 c48 0 87 4 87 8 0 5 -29 69
-64 143 -36 74 -67 144 -71 155 -3 11 -10 20 -14 20 -4 0 -24 -47 -44 -104z"/>
</g>
</svg>
